<svg xmlns="http://www.w3.org/2000/svg" width="216" height="216" viewBox="0 0 216 216" role="img" aria-label="VNS shield logo">
  <defs>
    <linearGradient id="edge" x1="0" y1="0" x2="0" y2="1">
      <stop offset="0" stop-color="#a9b6cb"/>
      <stop offset="1" stop-color="#6b7890"/>
    </linearGradient>
  </defs>
  <path d="M108 12c31 18 58 21 88 23v57c0 53-29 95-88 112C49 187 20 145 20 92V35c30-2 57-5 88-23z" fill="url(#edge)"/>
  <path d="M108 20c28 16 52 19 79 21v50c0 47-25 84-79 100C54 175 29 138 29 91V41c27-2 51-5 79-21z" fill="#2d4570"/>
  <path d="M108 31c24 14 45 17 68 19v39c0 42-22 74-68 88C62 163 40 131 40 89V50c23-2 44-5 68-19z" fill="#3f5c89" opacity="0.65"/>
  <text x="108" y="124" text-anchor="middle" font-size="58" font-family="Segoe UI, Arial, sans-serif" font-weight="700" fill="#d9e1ef" letter-spacing="3">VNS</text>
</svg>
